<svg width="30" height="30" viewBox="0 0 30 30" fill="none" xmlns="http://www.w3.org/2000/svg">
<path d="M15 0.370056C11.4382 0.370204 7.99269 1.63773 5.27994 3.94583C2.5672 6.25393 0.764247 9.45199 0.193695 12.9678C-0.376857 16.4836 0.322222 20.0877 2.16584 23.1352C4.00947 26.1827 6.87733 28.4748 10.2563 29.6013C11.0063 29.7326 11.2875 29.2826 11.2875 28.8888C11.2875 28.5326 11.2688 27.3513 11.2688 26.0951C7.5 26.7888 6.525 25.1763 6.225 24.3326C5.89211 23.512 5.36441 22.7848 4.6875 22.2138C4.1625 21.9326 3.4125 21.2388 4.66873 21.2201C5.14841 21.2721 5.60848 21.439 6.00994 21.7067C6.41141 21.9743 6.74244 22.3348 6.975 22.7575C7.18015 23.1261 7.45602 23.4505 7.78678 23.7123C8.11754 23.974 8.49671 24.1679 8.90254 24.2829C9.30838 24.3979 9.73291 24.4316 10.1518 24.3822C10.5707 24.3328 10.9758 24.2012 11.3437 23.995C11.4087 23.2325 11.7485 22.5195 12.3 21.9888C8.9625 21.6138 5.475 20.32 5.475 14.5826C5.45392 13.0918 6.00402 11.6495 7.0125 10.5514C6.55392 9.25568 6.60758 7.83378 7.1625 6.57635C7.1625 6.57635 8.4187 6.18259 11.2875 8.11385C13.7419 7.43881 16.3331 7.43881 18.7875 8.11385C21.6562 6.16385 22.9125 6.57635 22.9125 6.57635C23.4675 7.83376 23.5212 9.25569 23.0625 10.5514C24.074 11.6476 24.6246 13.0912 24.6 14.5826C24.6 20.3388 21.0937 21.6138 17.7562 21.9888C18.1142 22.3517 18.3899 22.7873 18.5646 23.2661C18.7393 23.7449 18.8089 24.2557 18.7687 24.7639C18.7687 26.7701 18.75 28.3826 18.75 28.8889C18.75 29.2826 19.0312 29.7514 19.7812 29.6014C23.1542 28.4657 26.0138 26.1682 27.8496 23.1191C29.6854 20.0701 30.3778 16.4678 29.8033 12.9554C29.2288 9.44302 27.4248 6.24911 24.7132 3.94382C22.0016 1.63853 18.5591 0.371909 15 0.370056V0.370056Z" fill="#575757"/>
</svg>
