<svg width="100" height="41" viewBox="0 0 100 41" fill="none" xmlns="http://www.w3.org/2000/svg">
<path d="M51.6281 14.9041L56.3857 14.585C56.4942 15.3921 56.6932 15.9926 57.0188 16.4243C57.5434 17.1 58.267 17.4378 59.2258 17.4378C59.9313 17.4378 60.492 17.2689 60.8719 16.9123C61.2337 16.6308 61.4508 16.1803 61.4508 15.7111C61.4508 15.2607 61.2518 14.829 60.9081 14.5475C60.5463 14.2097 59.6961 13.8719 58.3575 13.5716C56.1686 13.0648 54.5948 12.3892 53.6722 11.5258C52.7496 10.7188 52.225 9.53643 52.2612 8.27896C52.2612 7.41563 52.5145 6.5523 52.9848 5.83911C53.5275 5.03208 54.2692 4.39397 55.1556 4.03738C56.1143 3.60571 57.453 3.38049 59.1353 3.38049C61.1975 3.38049 62.7713 3.77462 63.8567 4.58165C64.9421 5.36991 65.5933 6.64614 65.7923 8.39157L61.089 8.67309C60.9624 7.92237 60.7091 7.3781 60.2931 7.0215C59.877 6.66491 59.3343 6.496 58.6288 6.496C58.0499 6.496 57.6158 6.62737 57.3263 6.87136C57.055 7.09657 56.8741 7.4344 56.8922 7.80976C56.8922 8.09128 57.0369 8.35404 57.254 8.52295C57.4891 8.74817 58.0499 8.95462 58.9363 9.1423C61.1252 9.63027 62.6809 10.1182 63.6397 10.625C64.5984 11.1317 65.2858 11.7511 65.7019 12.483C66.136 13.2337 66.3531 14.0971 66.335 14.9792C66.335 16.0302 66.0456 17.0812 65.4667 17.9633C64.8698 18.8829 64.0376 19.5961 63.0608 20.0278C62.0297 20.497 60.7272 20.741 59.1715 20.741C56.4219 20.741 54.5224 20.1967 53.4551 19.0894C52.3878 17.9821 51.7547 16.5932 51.6281 14.9041ZM1.13965 20.4595V3.68078H9.47902C11.0166 3.68078 12.2106 3.81216 13.0246 4.09368C13.8205 4.35643 14.526 4.90071 14.9964 5.63266C15.521 6.43969 15.7742 7.3781 15.7562 8.35404C15.8104 10.0056 14.9964 11.5821 13.6035 12.4079C13.0608 12.727 12.4638 12.9522 11.8488 13.0648C12.301 13.1962 12.7533 13.4214 13.1512 13.6842C13.4588 13.9469 13.712 14.2472 13.9472 14.5663C14.2185 14.8853 14.4537 15.2419 14.6527 15.6173L17.0767 20.4782H11.3965L8.71925 15.317C8.37554 14.6601 8.08611 14.2284 7.81476 14.022C7.45297 13.7592 7.01881 13.6279 6.58466 13.6279H6.15051V20.4407H1.13965V20.4595ZM6.15051 10.4748H8.267C8.71925 10.4373 9.1534 10.3622 9.58755 10.2496C9.91317 10.1933 10.2026 10.0056 10.4016 9.72411C10.89 9.04846 10.8177 8.09128 10.2207 7.50947C9.89508 7.22795 9.26194 7.07781 8.35745 7.07781H6.15051V10.4748ZM0 34.8358L4.7576 34.5168C4.86614 35.3238 5.06512 35.9244 5.39074 36.356C5.89725 37.0317 6.63893 37.3883 7.59768 37.3883C8.30318 37.3883 8.86397 37.2194 9.24385 36.8628C9.60564 36.5625 9.82272 36.1308 9.82272 35.6616C9.82272 35.2112 9.62373 34.7795 9.28003 34.498C8.91823 34.1602 8.06802 33.8223 6.71129 33.522C4.52243 33.0153 2.94863 32.3397 2.02605 31.4763C1.10347 30.6693 0.578871 29.4869 0.615051 28.2294C0.615051 27.3661 0.868307 26.5028 1.33864 25.7896C1.88133 24.9826 2.62301 24.3444 3.50941 23.9879C4.46816 23.5562 5.8068 23.331 7.48915 23.331C9.55138 23.331 11.1252 23.7251 12.2106 24.5321C13.2959 25.3392 13.9291 26.5966 14.1281 28.3421L9.42475 28.6236C9.29812 27.8728 9.04486 27.3286 8.6288 26.972C8.23083 26.6154 7.67004 26.4465 6.96454 26.4652C6.38567 26.4652 5.95152 26.5966 5.66208 26.8594C5.37265 27.0846 5.20984 27.4224 5.22793 27.7978C5.22793 28.0793 5.37265 28.3421 5.58973 28.511C5.82489 28.7362 6.38567 28.9426 7.27207 29.1303C9.46093 29.6183 11.0166 30.1062 11.9754 30.613C12.9342 31.1197 13.6216 31.7391 14.0376 32.471C14.4718 33.2218 14.6889 34.0851 14.6889 34.9484C14.6889 35.9994 14.3813 37.0317 13.8205 37.9138C13.2236 38.8334 12.3915 39.5466 11.4146 39.9783C10.3835 40.4475 9.08104 40.6915 7.52533 40.6915C4.77569 40.6915 2.87627 40.1472 1.80897 39.0399C0.741679 37.9138 0.144718 36.5249 0 34.8358H0Z" fill="#575757"/>
<path d="M24.0593 33.5221L28.4371 34.8921C28.2019 36.037 27.7135 37.1255 27.0441 38.0827C26.4291 38.9273 25.6151 39.5842 24.6925 40.0158C23.7518 40.4475 22.5579 40.6727 21.1107 40.6727C19.356 40.6727 17.9088 40.41 16.8054 39.8844C15.6838 39.3589 14.725 38.4205 13.911 37.088C13.097 35.7555 12.699 34.0476 12.699 31.9643C12.699 29.1866 13.4045 27.0471 14.8336 25.5644C16.2627 24.0817 18.2706 23.331 20.8755 23.331C22.9197 23.331 24.5116 23.7627 25.6874 24.6072C26.8452 25.4706 27.7135 26.7843 28.2923 28.5485L23.8784 29.562C23.7699 29.1679 23.6071 28.7737 23.39 28.4359C23.1187 28.0418 22.775 27.7415 22.3589 27.5163C21.9428 27.2911 21.4725 27.1972 21.0022 27.1972C19.8625 27.1972 18.9942 27.6664 18.3973 28.6236C17.945 29.318 17.7098 30.4253 17.7098 31.9268C17.7098 33.7848 17.9812 35.0611 18.5239 35.7555C19.0666 36.4499 19.8263 36.7877 20.8213 36.7877C21.78 36.7877 22.5036 36.5062 22.992 35.9619C23.4805 35.3801 23.8423 34.5731 24.0593 33.5221ZM34.28 23.6125H39.2728V29.4869H44.7359V23.6125H49.7648V40.3912H44.7359V33.5971H39.2728V40.3912H34.28V23.6125Z" fill="#575757"/>
<path d="M49.0774 32.0019C49.0774 29.2617 49.8191 27.1222 51.2844 25.602C52.7496 24.0817 54.8119 23.3123 57.4349 23.3123C60.1302 23.3123 62.1925 24.063 63.6577 25.5644C65.123 27.0659 65.8466 29.1679 65.8466 31.8705C65.8466 33.8412 65.521 35.4364 64.8878 36.6939C64.2728 37.9326 63.314 38.9461 62.1382 39.6217C60.9262 40.3161 59.4247 40.6727 57.6339 40.6727C55.8068 40.6727 54.3054 40.3724 53.1114 39.7719C51.8813 39.1338 50.8683 38.139 50.199 36.9191C49.4573 35.6054 49.0774 33.9725 49.0774 32.0019ZM54.0702 32.0206C54.0702 33.7098 54.3777 34.9297 54.9747 35.6804C55.5716 36.4124 56.4038 36.7877 57.453 36.7877C58.5203 36.7877 59.3524 36.4312 59.9493 35.6992C60.5463 34.9672 60.8357 33.6722 60.8357 31.7954C60.8357 30.2189 60.5282 29.0553 59.9132 28.3421C59.2981 27.6101 58.466 27.2536 57.4168 27.2536C56.4942 27.216 55.6078 27.6289 54.9928 28.3609C54.3777 29.0928 54.0702 30.3128 54.0702 32.0206ZM70.966 32.0019C70.966 29.2617 71.7077 27.1222 73.1729 25.602C74.6382 24.0817 76.7004 23.3123 79.3234 23.3123C82.0188 23.3123 84.0991 24.063 85.5463 25.5644C86.9935 27.0659 87.7352 29.1679 87.7352 31.8705C87.7352 33.8412 87.4096 35.4364 86.7764 36.6939C86.1614 37.9326 85.2026 38.9461 84.0268 39.6217C82.8148 40.3161 81.3133 40.6727 79.5224 40.6727C77.6954 40.6727 76.1939 40.3724 75 39.7719C73.7699 39.1338 72.7569 38.139 72.0876 36.9191C71.3459 35.6054 70.966 33.9725 70.966 32.0019ZM75.9588 32.0206C75.9588 33.7098 76.2663 34.9297 76.8632 35.6804C77.4602 36.4124 78.2923 36.7877 79.3415 36.7877C80.4088 36.7877 81.241 36.4312 81.8379 35.6992C82.4349 34.9672 82.7243 33.6722 82.7243 31.7954C82.7243 30.2189 82.4168 29.0553 81.8017 28.3421C81.1867 27.6101 80.3546 27.2536 79.3054 27.2536C78.3828 27.216 77.4783 27.6289 76.8813 28.3609C76.2663 29.0928 75.9588 30.3128 75.9588 32.0206Z" fill="#575757"/>
<path d="M87.2106 23.6125H92.2033V36.2622H100V40.3912H87.1925V23.6125H87.2106Z" fill="#575757"/>
<path d="M81.7074 22.6442C86.7341 18.7141 88.2841 12.0521 85.1696 7.76407C82.055 3.47606 75.4552 3.18587 70.4286 7.11591C65.4019 11.0459 63.8519 17.708 66.9665 21.996C70.081 26.284 76.6808 26.5742 81.7074 22.6442Z" fill="white"/>
<path d="M81.7074 22.6442C86.7341 18.7142 88.2841 12.0521 85.1696 7.76414C82.055 3.47613 75.4552 3.18593 70.4286 7.11597C65.4019 11.046 63.8519 17.7081 66.9665 21.9961C70.081 26.2841 76.6808 26.5743 81.7074 22.6442Z" stroke="#575757" stroke-width="4" stroke-miterlimit="10"/>
<path d="M70.9841 13.6467L72.7931 12.333L75.0181 15.6174C75.398 16.1429 75.6874 16.7059 75.9045 17.3253C76.0311 17.7945 75.9949 18.3012 75.814 18.7517C75.5789 19.3147 75.199 19.7839 74.6925 20.1217C74.0955 20.5534 73.589 20.7974 73.1549 20.8724C72.7388 20.9475 72.3046 20.8724 71.9067 20.6848C71.4725 20.4595 71.0926 20.1405 70.8032 19.7276L72.3589 18.2261C72.4855 18.4326 72.6483 18.6203 72.8292 18.7704C72.9559 18.8643 73.1006 18.9206 73.2634 18.9206C73.39 18.9206 73.5167 18.8643 73.6071 18.7892C73.788 18.6766 73.9146 18.4514 73.8965 18.2261C73.8423 17.9071 73.7156 17.588 73.5167 17.344L70.9841 13.6467ZM76.411 15.73L78.0572 14.3787C78.2381 14.6039 78.4732 14.7728 78.7265 14.8667C79.0883 14.9793 79.4682 14.9042 79.7757 14.6602C79.9928 14.5101 80.1737 14.3036 80.246 14.0409C80.3546 13.703 80.1737 13.3277 79.8481 13.2151C79.7938 13.1963 79.7395 13.1775 79.6852 13.1775C79.4682 13.1588 79.0883 13.2526 78.5275 13.4966C77.6049 13.8907 76.8813 14.0409 76.3386 13.9846C75.814 13.9283 75.3256 13.6467 75.0362 13.1775C74.8191 12.8585 74.7106 12.4831 74.6925 12.1077C74.6925 11.6761 74.801 11.2444 75.0362 10.8878C75.3799 10.3811 75.796 9.94942 76.3025 9.61159C77.0622 9.06732 77.7316 8.80457 78.3104 8.80457C78.8893 8.80457 79.432 9.08609 79.9385 9.6679L78.3104 11.0004C77.9848 10.5688 77.3698 10.4749 76.9537 10.8128L76.8994 10.8691C76.7185 10.9817 76.5919 11.1506 76.5195 11.357C76.4653 11.5072 76.5015 11.6761 76.5919 11.8075C76.6643 11.9013 76.7728 11.9764 76.8994 11.9764C77.0441 11.9951 77.2974 11.9201 77.6592 11.7512C78.5637 11.357 79.2511 11.1318 79.7214 11.0567C80.1194 10.9817 80.5355 11.0192 80.9153 11.1881C81.2591 11.3383 81.5485 11.601 81.7475 11.9201C82.0007 12.2954 82.1455 12.7459 82.1635 13.2151C82.1816 13.703 82.055 14.1722 81.8017 14.5851C81.4761 15.0919 81.0601 15.5235 80.5716 15.8614C79.5767 16.5746 78.7627 16.8748 78.1114 16.7622C77.4059 16.6496 76.8271 16.2743 76.411 15.73Z" fill="#575757"/>
</svg>
